<svg xmlns="http://www.w3.org/2000/svg" width="19.773" height="20.533" viewBox="0 0 19.773 20.533">
  <g id="_1F9D1-200D-1F4BC" data-name="1F9D1-200D-1F4BC" transform="translate(0.516 0.5)">
    <g id="color" transform="translate(0.18 11.064)">
      <path id="Path_33" data-name="Path 33" d="M17.221,49.556s-.76-5.246,3.8-5.246a6.249,6.249,0,0,0,3.421,1.366H24.4c1.168,0,2.018-1.013,3.231-1.822,5.061,0,4.144,5.7,4.144,5.7" transform="translate(-17.173 -41.888)" fill="#9b9b9a"/>
      <path id="Path_34" data-name="Path 34" d="M36.613,47.965l.918,1.728,2.422-5.556,2.455,3.719-4.242,1.571" transform="translate(-29.223 -42.064)" fill="#d0cfce"/>
      <path id="Path_35" data-name="Path 35" d="M31.864,50.832a1.992,1.992,0,0,1-2.087,0l-.7-.916L27.79,46.594l3.031,1.026L33.7,46.594,32.45,49.916Z" transform="translate(-23.754 -43.587)" fill="#fff"/>
      <path id="Path_36" data-name="Path 36" d="M56.131,46.212H50.244V38.684H56.05a.081.081,0,0,1,.081.081Z" transform="translate(-37.672 -38.684)" fill="#d0cfce"/>
      <path id="Path_37" data-name="Path 37" d="M53.564,49.215H48.01v-7.2H52.1a1.465,1.465,0,0,1,1.465,1.465Z" transform="translate(-36.287 -40.746)" fill="#fff"/>
      <path id="Path_38" data-name="Path 38" d="M33.331,48.535s-.459,2.289.877,2.289.877-2.289.877-2.289" transform="translate(-27.141 -44.79)" fill="#3f3f3f"/>
      <path id="Path_39" data-name="Path 39" d="M33.12,54.618a.321.321,0,0,1,.556,0l.443.767.721.754H31.956l.721-.754Z" transform="translate(-26.336 -48.461)" fill="#3f3f3f"/>
      <path id="Path_40" data-name="Path 40" d="M27.447,48.562,26.528,49.8l-2.156-4.91-1.5,3.225,3.6,1.685" transform="translate(-20.703 -42.528)" fill="#d0cfce"/>
    </g>
    <g id="hair" transform="translate(2.015)">
      <path id="Path_41" data-name="Path 41" d="M23.521,19.845C22,19.845,22,17.564,22,14.9s1.521-5.322,5.322-5.322,5.322,2.661,5.322,5.322,0,4.942-1.521,4.942" transform="translate(-22 -9.581)" fill="#3f3f3f"/>
    </g>
    <g id="skin" transform="translate(3.131 2.281)">
      <path id="Path_42" data-name="Path 42" d="M24.937,20.523c0,3.421,1.877,5.322,4.182,5.322,2.257,0,4.206-1.9,4.206-5.322a4.614,4.614,0,0,0-.38-1.9c-1.14-1.14-2.661-3.041-2.661-3.041-1.521,1.14-2.661,2.281-4.942,2.661C25.341,18.242,24.937,18.622,24.937,20.523Z" transform="translate(-24.937 -15.581)" fill="#fcea2b"/>
    </g>
    <g id="line">
      <path id="Path_43" data-name="Path 43" d="M53.564,49.411H48.01V42.326h4.5v.8h1.058Z" transform="translate(-36.107 -29.877)" fill="none" stroke="#000" stroke-linecap="round" stroke-linejoin="round" stroke-miterlimit="10" stroke-width="1"/>
      <path id="Path_44" data-name="Path 44" d="M51.214,38.863h5.636v7.085" transform="translate(-38.093 -27.731)" fill="none" stroke="#000" stroke-linecap="round" stroke-linejoin="round" stroke-miterlimit="10" stroke-width="1"/>
      <line id="Line_1" data-name="Line 1" x2="1.058" y2="0.803" transform="translate(16.399 12.449)" fill="none" stroke="#000" stroke-linecap="round" stroke-linejoin="round" stroke-miterlimit="10" stroke-width="1"/>
      <line id="Line_2" data-name="Line 2" x2="3.206" transform="translate(13.023 14.809)" fill="none" stroke="#000" stroke-linecap="round" stroke-linejoin="round" stroke-miterlimit="10" stroke-width="1"/>
      <path id="Path_45" data-name="Path 45" d="M59.388,50.583" transform="translate(-43.159 -34.995)" fill="none" stroke="#000" stroke-linecap="round" stroke-linejoin="round" stroke-miterlimit="10" stroke-width="1"/>
      <path id="Path_46" data-name="Path 46" d="M50.955,50.583" transform="translate(-37.932 -34.995)" fill="none" stroke="#000" stroke-linecap="round" stroke-linejoin="round" stroke-miterlimit="10" stroke-width="1"/>
      <line id="Line_3" data-name="Line 3" x2="3.206" transform="translate(13.023 16.366)" fill="none" stroke="#000" stroke-linecap="round" stroke-linejoin="round" stroke-miterlimit="10" stroke-width="1"/>
      <line id="Line_4" data-name="Line 4" x2="3.206" transform="translate(13.023 17.729)" fill="none" stroke="#000" stroke-linecap="round" stroke-linejoin="round" stroke-miterlimit="10" stroke-width="1"/>
      <path id="Path_47" data-name="Path 47" d="M33.331,48.535s-.459,2.289.877,2.289.877-2.289.877-2.289" transform="translate(-26.962 -33.726)" fill="none" stroke="#000" stroke-linecap="round" stroke-linejoin="round" stroke-miterlimit="10" stroke-width="1"/>
      <path id="Path_48" data-name="Path 48" d="M32.565,57.8" transform="translate(-26.534 -39.469)" fill="none" stroke="#000" stroke-linecap="round" stroke-linejoin="round" stroke-miterlimit="10" stroke-width="1"/>
      <path id="Path_49" data-name="Path 49" d="M38.96,57.8" transform="translate(-30.498 -39.469)" fill="none" stroke="#000" stroke-linecap="round" stroke-linejoin="round" stroke-miterlimit="10" stroke-width="1"/>
      <line id="Line_5" data-name="Line 5" x1="2.182" y2="0.828" transform="translate(8.463 17.506)" fill="none" stroke="#000" stroke-linecap="round" stroke-linejoin="round" stroke-miterlimit="10" stroke-width="1"/>
      <path id="Path_50" data-name="Path 50" d="M16.748,49.828s-.76-4.942,3.8-4.942a6.249,6.249,0,0,0,3.421,1.366h-.048a6.249,6.249,0,0,0,3.421-1.366" transform="translate(-16.7 -31.464)" fill="none" stroke="#000" stroke-linecap="round" stroke-linejoin="round" stroke-miterlimit="10" stroke-width="1"/>
      <path id="Path_51" data-name="Path 51" d="M27.447,48.562,26.528,49.8l-2.156-4.91-1.5,3.225,3.6,1.685" transform="translate(-20.523 -31.464)" fill="none" stroke="#000" stroke-linecap="round" stroke-linejoin="round" stroke-miterlimit="10" stroke-width="1"/>
      <path id="Path_52" data-name="Path 52" d="M39.687,44.886,37.531,49.8l-.918-1.234" transform="translate(-29.043 -31.464)" fill="none" stroke="#000" stroke-linecap="round" stroke-linejoin="round" stroke-miterlimit="10" stroke-width="1"/>
      <path id="Path_53" data-name="Path 53" d="M27.441,25.171" transform="translate(-23.358 -19.244)" fill="none" stroke="#000" stroke-linecap="round" stroke-linejoin="round" stroke-miterlimit="10" stroke-width="1"/>
      <path id="Path_54" data-name="Path 54" d="M39.474,25.807a.76.76,0,1,1-.76-.76.76.76,0,0,1,.76.76" transform="translate(-29.873 -19.167)"/>
      <path id="Path_55" data-name="Path 55" d="M31.474,25.807a.76.76,0,1,1-.76-.76.76.76,0,0,1,.76.76" transform="translate(-24.915 -19.167)"/>
      <path id="Path_56" data-name="Path 56" d="M33.473,35.343a2.909,2.909,0,0,1-1.311-.326.38.38,0,1,1,.34-.68,2.045,2.045,0,0,0,1.941,0,.38.38,0,1,1,.34.68A2.909,2.909,0,0,1,33.473,35.343Z" transform="translate(-26.154 -24.9)"/>
      <path id="Path_57" data-name="Path 57" d="M23.521,19.845C22,19.845,22,17.564,22,14.9s1.521-5.322,5.322-5.322,5.322,2.661,5.322,5.322,0,4.942-1.521,4.942" transform="translate(-19.985 -9.581)" fill="none" stroke="#000" stroke-linecap="round" stroke-linejoin="round" stroke-width="1"/>
      <path id="Path_58" data-name="Path 58" d="M24.937,20.523c0,3.421,1.877,5.322,4.182,5.322,2.257,0,4.206-1.9,4.206-5.322a4.614,4.614,0,0,0-.38-1.9c-1.14-1.14-2.661-3.041-2.661-3.041-1.521,1.14-2.661,2.281-4.942,2.661C25.341,18.242,24.937,18.622,24.937,20.523Z" transform="translate(-21.805 -13.3)" fill="none" stroke="#000" stroke-linejoin="round" stroke-width="1"/>
    </g>
  </g>
</svg>
