<svg xmlns="http://www.w3.org/2000/svg" width="15.6" height="17.247" viewBox="0 0 15.6 17.247">
  <g id="_1F454" data-name="1F454" transform="translate(1 0.803)">
    <g id="color" transform="translate(0 0.2)">
      <path id="Path_117" data-name="Path 117" d="M11.793,9.38A1.621,1.621,0,0,0,10.171,11V21.359a1.621,1.621,0,0,0,1.621,1.621H22.15a1.621,1.621,0,0,0,1.621-1.621V11A1.621,1.621,0,0,0,22.15,9.38h-.86L18.474,7.8l-2.32-.062-2.236.627-1.1,1.016h-1.03Z" transform="translate(-10.171 -7.737)" fill="#61b2e4" stroke="#61b2e4" stroke-miterlimit="10" stroke-width="2"/>
      <path id="Path_118" data-name="Path 118" d="M20.031,11.28s-1.262.8,1.765,4.548l1.085-1.912-1.856-2.289-.84-.84" transform="translate(-17.159 -9.958)" fill="#92d3f5" stroke="#92d3f5" stroke-miterlimit="10" stroke-width="2"/>
      <path id="Path_119" data-name="Path 119" d="M41.555,11.368l-.655.655-1.951,2.317,1.268,1.913c3.027-3.744,1.645-4.455,1.645-4.455" transform="translate(-31.121 -10.38)" fill="#92d3f5" stroke="#92d3f5" stroke-miterlimit="10" stroke-width="2"/>
      <path id="Path_120" data-name="Path 120" d="M31.559,31.62h-.818l-1.095,8.747h3.006Z" transform="translate(-24.349 -25.124)" fill="#8967aa"/>
      <path id="Path_121" data-name="Path 121" d="M33.4,24.663h-.818l-.409.946.409.946H33.4l.409-.946Z" transform="translate(-26.185 -20.059)" fill="#8967aa"/>
    </g>
    <g id="line" transform="translate(0 0)">
      <path id="Path_122" data-name="Path 122" d="M55.171,45.867" transform="translate(-42.931 -35.295)" fill="none" stroke="#000" stroke-linecap="round" stroke-linejoin="round" stroke-miterlimit="10" stroke-width="1"/>
      <path id="Path_123" data-name="Path 123" d="M11.793,13.778A1.621,1.621,0,0,0,10.171,15.4V25.756a1.621,1.621,0,0,0,1.621,1.621H22.15a1.621,1.621,0,0,0,1.621-1.621V15.4a1.621,1.621,0,0,0-1.621-1.621" transform="translate(-10.171 -11.934)" fill="none" stroke="#000" stroke-linecap="round" stroke-linejoin="round" stroke-miterlimit="10" stroke-width="1"/>
      <path id="Path_124" data-name="Path 124" d="M20.662,8.87l2.128,2.289-1.357,2.184C18.406,9.6,19.442,8.571,19.442,8.571a6.384,6.384,0,0,1,8.327,0s1.037,1.027-1.991,4.771l-1.357-2.184,2.153-2.315" transform="translate(-16.796 -7)" fill="none" stroke="#000" stroke-linecap="round" stroke-linejoin="round" stroke-miterlimit="10" stroke-width="1"/>
      <path id="Path_125" data-name="Path 125" d="M19.918,13.778" transform="translate(-17.267 -11.934)" fill="none" stroke="#000" stroke-linecap="round" stroke-linejoin="round" stroke-miterlimit="10" stroke-width="1"/>
      <path id="Path_126" data-name="Path 126" d="M31.559,31.62h-.818l-1.095,8.747h3.006Z" transform="translate(-24.349 -24.923)" fill="none" stroke="#000" stroke-linecap="round" stroke-linejoin="round" stroke-miterlimit="10" stroke-width="1"/>
      <path id="Path_127" data-name="Path 127" d="M33.4,24.663h-.818l-.409.946.409.946H33.4l.409-.946Z" transform="translate(-26.185 -19.858)" fill="none" stroke="#000" stroke-linecap="round" stroke-linejoin="round" stroke-miterlimit="10" stroke-width="1"/>
    </g>
  </g>
</svg>
