<svg xmlns="http://www.w3.org/2000/svg" width="19.403" height="14.526" viewBox="0 0 19.403 14.526">
  <g id="_1F4F7" data-name="1F4F7" transform="translate(0.344 0.5)">
    <g id="color" transform="translate(0 0)">
      <path id="Path_247" data-name="Path 247" d="M27.947,28.007a3.678,3.678,0,1,0,3.678,3.678A3.682,3.682,0,0,0,27.947,28.007Zm0,5.6a1.919,1.919,0,1,1,1.919-1.919A1.921,1.921,0,0,1,27.947,33.6Z" transform="translate(-19.452 -23.79)" fill="#3f3f3f"/>
      <circle id="Ellipse_14" data-name="Ellipse 14" cx="1.919" cy="1.919" r="1.919" transform="translate(6.575 5.976)" fill="#d0cfce"/>
      <path id="Path_248" data-name="Path 248" d="M29.705,22.918H13.332a1.621,1.621,0,0,0-1.207,1.175l.175,2.77h3.088l1.592.072a4.493,4.493,0,0,1,3.483-2.224c1.593,0,3.356,1.923,3.354,1.919l1.3.115,5.49.088-.082-2.74C30.528,23.656,30.159,22.918,29.705,22.918Z" transform="translate(-11.97 -20.655)" fill="#fff"/>
      <path id="Path_249" data-name="Path 249" d="M21.614,17.851a5.435,5.435,0,0,1-.518-.83H17.628s-.492.961-.5.936v1.278l4.487-.045Z" transform="translate(-15.052 -17.021)" fill="#f1b31c"/>
      <path id="Path_250" data-name="Path 250" d="M29.088,40a9.4,9.4,0,0,0,1.19-.739l.082-6.706-4.136-.087-.915-.267H23.892l.006.013h0c.084.15-.255.306-.19.466,0,.011.114,3.069.06,3.125a17.945,17.945,0,0,1-1.174,1.476,3.433,3.433,0,0,1-1.794.782c-.133.013-.767.043-.811.038a5.679,5.679,0,0,1-1.613-.535,5.177,5.177,0,0,1-1.232-.993,2.854,2.854,0,0,1-.384-.768,3.694,3.694,0,0,1-.323-1.835,10.849,10.849,0,0,1,.517-1.727L15.139,32.2c.069,0-3.419.151-3.419.151l.039,6.375a2.823,2.823,0,0,0,.47.831,1.674,1.674,0,0,0,.746.442Z" transform="translate(-11.72 -26.373)" fill="#9b9b9a"/>
    </g>
    <g id="line" transform="translate(0.156 0)">
      <path id="Path_251" data-name="Path 251" d="M13.332,22.918a1.191,1.191,0,0,0-1.207,1.175v8.912a1.191,1.191,0,0,0,1.207,1.175H29.321a1.191,1.191,0,0,0,1.207-1.175V24.093a1.191,1.191,0,0,0-1.207-1.175Z" transform="translate(-12.126 -20.655)" fill="none" stroke="#000" stroke-linecap="round" stroke-linejoin="round" stroke-miterlimit="10" stroke-width="1"/>
      <line id="Line_19" data-name="Line 19" x2="4.784" transform="translate(13.443 6.209)" fill="none" stroke="#000" stroke-linecap="round" stroke-linejoin="round" stroke-miterlimit="10" stroke-width="1"/>
      <line id="Line_20" data-name="Line 20" x2="3.088" transform="translate(0.175 6.209)" fill="none" stroke="#000" stroke-linecap="round" stroke-linejoin="round" stroke-miterlimit="10" stroke-width="1"/>
      <circle id="Ellipse_15" data-name="Ellipse 15" cx="3.838" cy="3.838" r="3.838" transform="translate(4.501 4.057)" fill="none" stroke="#000" stroke-linecap="round" stroke-linejoin="round" stroke-miterlimit="10" stroke-width="1"/>
      <circle id="Ellipse_16" data-name="Ellipse 16" cx="1.919" cy="1.919" r="1.919" transform="translate(6.42 5.976)" fill="none" stroke="#000" stroke-linecap="round" stroke-linejoin="round" stroke-miterlimit="10" stroke-width="1"/>
      <path id="Path_252" data-name="Path 252" d="M21.809,17.826v-.414a.4.4,0,0,0-.4-.392H18.461a.4.4,0,0,0-.4.392v.414" transform="translate(-15.781 -17.021)" fill="none" stroke="#000" stroke-linecap="round" stroke-linejoin="round" stroke-miterlimit="10" stroke-width="1"/>
    </g>
  </g>
</svg>
