<svg xmlns="http://www.w3.org/2000/svg" width="30.784" height="20.97" viewBox="0 0 30.784 20.97">
  <g id="_1F48F" data-name="1F48F" transform="translate(0.501 0.509)">
    <g id="color" transform="translate(9.26 0)">
      <path id="Path_874" data-name="Path 874" d="M31.767,13.419a2.436,2.436,0,0,1,3.319-1.159,2.587,2.587,0,0,1,1.159,3.372,2.291,2.291,0,0,1-.211.369L31.767,21.48,27.5,16a1.321,1.321,0,0,1-.211-.369,2.587,2.587,0,0,1,1.159-3.372,2.436,2.436,0,0,1,3.319,1.159Z" transform="translate(-27.052 -11.992)" fill="#ea5a47"/>
    </g>
    <g id="hair" transform="translate(0 5.373)">
      <g id="hair-a" transform="translate(0 0.257)">
        <path id="Path_875" data-name="Path 875" d="M9.489,31.773c.316-4.636,3.846-4.689,5.585-4.373a3.961,3.961,0,0,0,.79,0c3.214-.421,4.795,3.214,4.795,4.795a4.081,4.081,0,0,1-.79,2.792s-1.844-2.213-1.9-3.477c0,0-6.059,2.318-6.48.316a7.963,7.963,0,0,1-.79,2v1.581A5.94,5.94,0,0,1,9.489,31.773Z" transform="translate(-9.476 -27.288)" fill="#a57939"/>
      </g>
      <g id="hair-b" transform="translate(14.638)">
        <path id="Path_876" data-name="Path 876" d="M38.019,41.658c-1.581-2.371-.316-4.636.421-6.48.632-1.686-.105-2.582.527-4.795.58-2.213,2.9-3.583,5.479-3.583a4.364,4.364,0,0,1,3.214,1.212,3.215,3.215,0,0,1,2.95,3.214c.158,2.845.421,2.845,1.37,5.111a5.615,5.615,0,0,1-.738,5.374" transform="translate(-37.26 -26.8)" fill="#a57939"/>
      </g>
    </g>
    <g id="skin" transform="translate(1.224 8.534)">
      <g id="skin-a" transform="translate(0 1.317)">
        <path id="Path_877" data-name="Path 877" d="M19.071,35.3s-6.059,2.318-6.48.316a8.776,8.776,0,0,1-.744,1.941,7.729,7.729,0,0,0-.046.8c0,3.288,2.052,5.954,4.584,5.954,2.427,0,4.408-2.452,4.568-5.551C20.794,38.566,19.121,36.5,19.071,35.3Z" transform="translate(-11.8 -35.3)" fill="#fcea2b"/>
      </g>
      <g id="skin-b" transform="translate(16.543)">
        <path id="Path_878" data-name="Path 878" d="M43.2,37.595c0,3.214,2,5.585,4.373,5.585s4.373-2.371,4.373-5.585c0-2-.79-3.214-2.371-4.794-1.581,1.581-6.375,3.583-6.375,4.373Z" transform="translate(-43.2 -32.8)" fill="#fcea2b"/>
      </g>
    </g>
    <g id="line" transform="translate(0 0)">
      <path id="Path_879" data-name="Path 879" d="M20.968,40.2v.474c0,3.319-2.055,5.954-4.584,5.954S11.8,43.941,11.8,40.674v-.369" transform="translate(-10.576 -27.767)" fill="none" stroke="#000" stroke-miterlimit="10" stroke-width="1"/>
      <path id="Path_880" data-name="Path 880" d="M20.2,47.4a.691.691,0,0,0,1.106,0" transform="translate(-14.55 -31.174)" fill="none" stroke="#000" stroke-linecap="round" stroke-linejoin="round" stroke-width="1"/>
      <path id="Path_881" data-name="Path 881" d="M22.5,41.8a1.1,1.1,0,0,0,1.581,0" transform="translate(-15.638 -27.842)" fill="none" stroke="#000" stroke-linecap="round" stroke-miterlimit="10" stroke-width="1"/>
      <path id="Path_882" data-name="Path 882" d="M14.9,41.1a1.1,1.1,0,0,0,1.581,0" transform="translate(-12.042 -27.47)" fill="none" stroke="#000" stroke-linecap="round" stroke-miterlimit="10" stroke-width="1"/>
      <path id="Path_883" data-name="Path 883" d="M9.489,31.773c.316-4.636,3.846-4.689,5.585-4.373a3.961,3.961,0,0,0,.79,0c3.214-.421,4.795,3.214,4.795,4.795a4.081,4.081,0,0,1-.79,2.792s-1.844-2.213-1.9-3.477c0,0-6.059,2.318-6.48.316a7.963,7.963,0,0,1-.79,2v1.581A5.94,5.94,0,0,1,9.489,31.773Z" transform="translate(-9.476 -20.621)" fill="none" stroke="#000" stroke-linecap="round" stroke-linejoin="round" stroke-width="1"/>
      <path id="Path_884" data-name="Path 884" d="M57.7,29.2" transform="translate(-32.292 -21.126)" fill="none" stroke="#000" stroke-linecap="round" stroke-linejoin="round" stroke-width="1"/>
      <path id="Path_885" data-name="Path 885" d="M31.767,13.419a2.436,2.436,0,0,1,3.319-1.159,2.587,2.587,0,0,1,1.159,3.372,2.291,2.291,0,0,1-.211.369L31.767,21.48,27.5,16a1.321,1.321,0,0,1-.211-.369,2.587,2.587,0,0,1,1.159-3.372,2.436,2.436,0,0,1,3.319,1.159Z" transform="translate(-17.792 -11.992)" fill="none" stroke="#000" stroke-linecap="round" stroke-linejoin="round" stroke-width="1"/>
      <path id="Path_886" data-name="Path 886" d="M38.019,41.131c-1.581-2.371-.316-4.11.421-5.954.632-1.686-.105-2.582.527-4.795.58-2.213,2.9-3.583,5.479-3.583a4.364,4.364,0,0,1,3.214,1.212,3.215,3.215,0,0,1,2.95,3.214c.158,2.845.421,2.845,1.37,5.111a4.651,4.651,0,0,1-.738,4.847" transform="translate(-22.622 -21.427)" fill="none" stroke="#000" stroke-linecap="round" stroke-linejoin="round" stroke-width="1"/>
      <path id="Path_887" data-name="Path 887" d="M43.2,37.595c0,3.214,2,5.585,4.373,5.585s4.373-2.371,4.373-5.585c0-2-.79-3.214-2.371-4.794-1.581,1.581-6.375,3.583-6.375,4.373Z" transform="translate(-25.432 -24.266)" fill="none" stroke="#000" stroke-linejoin="round" stroke-miterlimit="10" stroke-width="1"/>
      <path id="Path_888" data-name="Path 888" d="M49.2,47.4a.642.642,0,0,0,1.106,0" transform="translate(-28.271 -31.174)" fill="none" stroke="#000" stroke-linecap="round" stroke-linejoin="round" stroke-width="1"/>
      <path id="Path_889" data-name="Path 889" d="M53.9,41.1a1.1,1.1,0,0,0,1.581,0" transform="translate(-30.495 -27.47)" fill="none" stroke="#000" stroke-linecap="round" stroke-miterlimit="10" stroke-width="1"/>
      <path id="Path_890" data-name="Path 890" d="M46.3,41.8a1.1,1.1,0,0,0,1.581,0" transform="translate(-26.899 -27.842)" fill="none" stroke="#000" stroke-linecap="round" stroke-miterlimit="10" stroke-width="1"/>
    </g>
  </g>
</svg>
