<svg xmlns="http://www.w3.org/2000/svg" width="16.092" height="16.433" viewBox="0 0 16.092 16.433">
  <g id="_1F4D4" data-name="1F4D4" transform="translate(0.463 0.5)">
    <g id="color" transform="translate(0 1.455)">
      <rect id="Rectangle_29" data-name="Rectangle 29" width="12.347" height="13.82" transform="translate(1.618 0)" fill="#fcea2b"/>
      <rect id="Rectangle_30" data-name="Rectangle 30" width="1.73" height="13.82" transform="translate(0 0)" fill="#f1b31c"/>
      <rect id="Rectangle_31" data-name="Rectangle 31" width="12.341" height="4.019" transform="translate(1.621 3.455)" fill="#fff"/>
    </g>
    <g id="line" transform="translate(0.048 0)">
      <line id="Line_6" data-name="Line 6" y2="14" transform="translate(1.952 1.195)" fill="none" stroke="#000" stroke-linecap="round" stroke-linejoin="round" stroke-width="1"/>
      <path id="Path_60" data-name="Path 60" d="M26.929,20.911a.578.578,0,0,0,.318-.514V7.606A.606.606,0,0,0,26.641,7H13.416a1.388,1.388,0,0,0-1.156.62h0a.55.55,0,0,0,.458.854h1.108l.621-.005H26.059V22.433H12.717a.55.55,0,0,1-.55-.538V8.04" transform="translate(-12.167 -7)" fill="none" stroke="#000" stroke-linecap="round" stroke-linejoin="round" stroke-width="1"/>
      <g id="Group_23" data-name="Group 23" transform="translate(3.027 5.942)">
        <g id="Group_21" data-name="Group 21" transform="translate(6.208 0.005)">
          <path id="Path_61" data-name="Path 61" d="M45.021,27.438H43.908v1.948h1.113" transform="translate(-43.908 -27.438)" fill="none" stroke="#000" stroke-linecap="round" stroke-linejoin="round" stroke-width="1"/>
          <line id="Line_7" data-name="Line 7" x2="0.835" transform="translate(0 0.974)" fill="none" stroke="#000" stroke-linecap="round" stroke-linejoin="round" stroke-width="1"/>
        </g>
        <path id="Path_62" data-name="Path 62" d="M22.57,29.386V27.438l1.391,1.948V27.438" transform="translate(-22.57 -27.433)" fill="none" stroke="#000" stroke-linecap="round" stroke-linejoin="round" stroke-width="1"/>
        <path id="Path_63" data-name="Path 63" d="M30.917,29.386h0a.7.7,0,0,1-.7-.7v-.557a.7.7,0,0,1,.7-.7h0a.7.7,0,0,1,.7.7v.556A.7.7,0,0,1,30.917,29.386Z" transform="translate(-27.995 -27.433)" fill="none" stroke="#000" stroke-linecap="round" stroke-linejoin="round" stroke-width="1"/>
        <path id="Path_64" data-name="Path 64" d="M51.519,27.814a.594.594,0,0,0-.6-.389h0a.5.5,0,1,0,0,.974l-.012,0a.5.5,0,1,1,0,.974h0a.594.594,0,0,1-.6-.389" transform="translate(-42.238 -27.422)" fill="none" stroke="#000" stroke-linecap="round" stroke-linejoin="round" stroke-width="1"/>
        <g id="Group_22" data-name="Group 22" transform="translate(4.267 0.005)">
          <line id="Line_8" data-name="Line 8" x2="1.113" fill="none" stroke="#000" stroke-linecap="round" stroke-linejoin="round" stroke-width="1"/>
          <line id="Line_9" data-name="Line 9" y2="1.948" transform="translate(0.556)" fill="none" stroke="#000" stroke-linecap="round" stroke-linejoin="round" stroke-width="1"/>
        </g>
      </g>
    </g>
  </g>
</svg>
