<svg xmlns="http://www.w3.org/2000/svg" width="16.602" height="16.617" viewBox="0 0 16.602 16.617">
  <g id="_1F3C9" data-name="1F3C9" transform="translate(0.573 0.572)">
    <g id="color" transform="translate(0 0)">
      <path id="Path_600" data-name="Path 600" d="M27.137,12.4A11.993,11.993,0,0,0,12.5,27.076l.016.016A11.993,11.993,0,0,0,27.153,12.419" transform="translate(-12.096 -12.011)" fill="#f4aa41"/>
      <path id="Path_601" data-name="Path 601" d="M27.836,20.353a12.623,12.623,0,0,1-4.978,8.338,11.923,11.923,0,0,1-10.4,1.61,11.977,11.977,0,0,0,.377,2.428l.016.016a11.939,11.939,0,0,0,11.486-3.107A12.675,12.675,0,0,0,27.836,20.353Z" transform="translate(-12.342 -17.656)" fill="#e27022"/>
    </g>
    <g id="line" transform="translate(0 0)">
      <path id="Path_602" data-name="Path 602" d="M27.137,12.4A11.993,11.993,0,0,0,12.5,27.076l.016.016A11.993,11.993,0,0,0,27.153,12.419" transform="translate(-12.096 -12.011)" fill="none" stroke="#000" stroke-linecap="round" stroke-linejoin="round" stroke-miterlimit="10" stroke-width="1"/>
      <line id="Line_67" data-name="Line 67" x1="14.657" y2="14.657" transform="translate(0.4 0.409)" fill="none" stroke="#000" stroke-linecap="round" stroke-linejoin="round" stroke-miterlimit="10" stroke-width="1"/>
      <line id="Line_68" data-name="Line 68" x1="1.319" y1="1.319" transform="translate(8.212 5.935)" fill="none" stroke="#000" stroke-linecap="round" stroke-linejoin="round" stroke-miterlimit="10" stroke-width="1"/>
      <line id="Line_69" data-name="Line 69" x1="1.319" y1="1.319" transform="translate(9.355 4.792)" fill="none" stroke="#000" stroke-linecap="round" stroke-linejoin="round" stroke-miterlimit="10" stroke-width="1"/>
      <line id="Line_70" data-name="Line 70" x1="1.319" y1="1.319" transform="translate(7.069 7.078)" fill="none" stroke="#000" stroke-linecap="round" stroke-linejoin="round" stroke-miterlimit="10" stroke-width="1"/>
      <line id="Line_71" data-name="Line 71" x1="1.319" y1="1.319" transform="translate(5.926 8.221)" fill="none" stroke="#000" stroke-linecap="round" stroke-linejoin="round" stroke-miterlimit="10" stroke-width="1"/>
      <line id="Line_72" data-name="Line 72" x1="1.319" y1="1.319" transform="translate(4.783 9.364)" fill="none" stroke="#000" stroke-linecap="round" stroke-linejoin="round" stroke-miterlimit="10" stroke-width="1"/>
      <path id="Path_603" data-name="Path 603" d="M26.016,32.733a3.218,3.218,0,0,1,.422-1.6" transform="translate(-21.516 -24.951)" fill="none" stroke="#000" stroke-linecap="round" stroke-linejoin="round" stroke-miterlimit="10" stroke-width="1"/>
      <path id="Path_604" data-name="Path 604" d="M37.63,44.746a3.218,3.218,0,0,1-1.614.431" transform="translate(-28.283 -34.163)" fill="none" stroke="#000" stroke-linecap="round" stroke-linejoin="round" stroke-miterlimit="10" stroke-width="1"/>
      <path id="Path_605" data-name="Path 605" d="M45.112,36.079a3.218,3.218,0,0,1-.432,1.615" transform="translate(-34.146 -28.298)" fill="none" stroke="#000" stroke-linecap="round" stroke-linejoin="round" stroke-miterlimit="10" stroke-width="1"/>
      <path id="Path_606" data-name="Path 606" d="M30.986,26.518a3.218,3.218,0,0,1,1.6-.438" transform="translate(-24.879 -21.531)" fill="none" stroke="#000" stroke-linecap="round" stroke-linejoin="round" stroke-miterlimit="10" stroke-width="1"/>
    </g>
  </g>
</svg>
