<svg xmlns="http://www.w3.org/2000/svg" width="22.755" height="19.085" viewBox="0 0 22.755 19.085">
  <g id="_1F91D" data-name="1F91D" transform="translate(0.775 0.653)">
    <g id="skin" transform="translate(0.123 0.258)">
      <path id="Path_815" data-name="Path 815" d="M22.712,38.436c.664.7,1.681-1.259,1.975-1.686.944.7,3.482,1.242,3.095-.654.5.184,2.068.272,1.58-1.418a1.422,1.422,0,0,0,2.154-1.421,1.293,1.293,0,0,0,1.473-1.785,8.616,8.616,0,0,0,1.476-6.025c-.319-4.067-5.782-2.529-8.295-4.118l-5.334.021c-.9,1.62-1.466.75-3.173.96-2.493.366-4.55,6.674-3.909,6.962l3.175,3.382c.057.627-1.606,1.661-.146,2.417a20.82,20.82,0,0,1,5.933,3.363Z" transform="translate(-13.636 -21.329)" fill="#fcea2b" stroke="#fcea2b" stroke-linecap="round" stroke-width="1.819"/>
    </g>
    <g id="line" transform="translate(0 0)">
      <path id="Path_816" data-name="Path 816" d="M8.447,24.276a20.427,20.427,0,0,1-2.953-2.857c-1.519-2.627.328-6.846,3.612-7.548" transform="translate(-4.955 -12.63)" fill="none" stroke="#000" stroke-linecap="round" stroke-linejoin="round" stroke-width="1"/>
      <path id="Path_817" data-name="Path 817" d="M38.71,42.99l4.459,2.429" transform="translate(-27.033 -31.676)" fill="none" stroke="#000" stroke-linecap="round" stroke-linejoin="round" stroke-width="1"/>
      <path id="Path_818" data-name="Path 818" d="M33.87,47.79l4.5,2.248" transform="translate(-23.867 -34.816)" fill="none" stroke="#000" stroke-linecap="round" stroke-linejoin="round" stroke-width="1"/>
      <path id="Path_819" data-name="Path 819" d="M49.429,40.034l-1.764-1.508-2.864-1.5" transform="translate(-31.017 -27.776)" fill="none" stroke="#000" stroke-linecap="round" stroke-linejoin="round" stroke-width="1"/>
      <path id="Path_820" data-name="Path 820" d="M25.639,26.2c2.966,1.891,3.733-.1,3.247-.69a1.13,1.13,0,0,0,1.637-1.482A1.5,1.5,0,0,0,32.8,22.546a1.35,1.35,0,0,0,1.534-1.865c2.325-1.586,1.744-6.583-.034-8.773-3.213-.5-3.805-.817-7.258-1.364l-4.68-.214a1.381,1.381,0,0,0-1.653.876,11.366,11.366,0,0,1-1.245,2.9,1.224,1.224,0,0,0,.648,1.587c.66.165.962-.134,1.543-.583a8.978,8.978,0,0,0,1.316-1.583l4.719,2.146,4.4,2.478a18.037,18.037,0,0,1,2.252,2.533" transform="translate(-14.385 -10.284)" fill="none" stroke="#000" stroke-linecap="round" stroke-linejoin="round" stroke-width="1"/>
      <path id="Path_821" data-name="Path 821" d="M30.177,53.259a1.045,1.045,0,0,1,1.434-.311,1.017,1.017,0,0,1,.511,1.406l-.614,1.073a1.131,1.131,0,0,1-1.957-1.1l.626-1.07Z" transform="translate(-20.991 -38.085)" fill="none" stroke="#000" stroke-linecap="round" stroke-linejoin="round" stroke-width="1"/>
      <path id="Path_822" data-name="Path 822" d="M24.507,50.089a1.045,1.045,0,0,1,1.434-.311,1.017,1.017,0,0,1,.511,1.406l-.614,1.073a1.131,1.131,0,0,1-1.957-1.1l.626-1.07Z" transform="translate(-17.282 -36.011)" fill="none" stroke="#000" stroke-linecap="round" stroke-linejoin="round" stroke-width="1"/>
      <path id="Path_823" data-name="Path 823" d="M18.847,46.929a1.045,1.045,0,0,1,1.434-.311,1.017,1.017,0,0,1,.511,1.406L20.178,49.1A1.131,1.131,0,0,1,18.221,48l.626-1.07Z" transform="translate(-13.58 -33.944)" fill="none" stroke="#000" stroke-linecap="round" stroke-linejoin="round" stroke-width="1"/>
      <path id="Path_824" data-name="Path 824" d="M13.2,43.759a1.045,1.045,0,0,1,1.434-.311,1.017,1.017,0,0,1,.511,1.406l-.614,1.073a1.131,1.131,0,0,1-1.957-1.1l.626-1.07Z" transform="translate(-9.885 -31.871)" fill="none" stroke="#000" stroke-linecap="round" stroke-linejoin="round" stroke-width="1"/>
    </g>
  </g>
</svg>
