<svg xmlns="http://www.w3.org/2000/svg" width="15.712" height="16.871" viewBox="0 0 15.712 16.871">
  <g id="_1F4C3" data-name="1F4C3" transform="translate(0.5 0.5)">
    <g id="color" transform="translate(0 0)">
      <path id="Path_916" data-name="Path 916" d="M29.331,24.171V10.958H15.037V25.372L28.8,24.9" transform="translate(-14.619 -10.958)" fill="#9b9b9a"/>
      <path id="Path_917" data-name="Path 917" d="M29.958,24.171V10.958H16V21.48" transform="translate(-15.246 -10.958)" fill="#9b9b9a"/>
      <path id="Path_918" data-name="Path 918" d="M25.749,38.149,13.839,40.767l.284,3.765,10.883-1.453,1.142-.152,1.356-.181Z" transform="translate(-13.839 -28.661)" fill="#d0cfce"/>
    </g>
    <g id="line" transform="translate(0 0)">
      <path id="Path_919" data-name="Path 919" d="M29.958,24.171V10.958H16V21.48" transform="translate(-15.246 -10.958)" fill="none" stroke="#000" stroke-linecap="round" stroke-linejoin="round" stroke-miterlimit="10" stroke-width="1"/>
      <path id="Path_920" data-name="Path 920" d="M25.749,38.149,13.839,40.767l.284,3.765,10.883-1.453,1.142-.152,1.356-.181Z" transform="translate(-13.839 -28.661)" fill="none" stroke="#000" stroke-linecap="round" stroke-linejoin="round" stroke-miterlimit="10" stroke-width="1"/>
      <line id="Line_108" data-name="Line 108" x2="5.366" transform="translate(2.367 1.759)" fill="none" stroke="#000" stroke-linecap="round" stroke-linejoin="round" stroke-miterlimit="10" stroke-width="1"/>
      <line id="Line_109" data-name="Line 109" x2="10.831" transform="translate(2.367 3.618)" fill="none" stroke="#000" stroke-linecap="round" stroke-linejoin="round" stroke-miterlimit="10" stroke-width="1"/>
      <line id="Line_110" data-name="Line 110" x2="10.831" transform="translate(2.367 7.419)" fill="none" stroke="#000" stroke-linecap="round" stroke-linejoin="round" stroke-miterlimit="10" stroke-width="1"/>
      <line id="Line_111" data-name="Line 111" x2="4.456" transform="translate(2.367 9.306)" fill="none" stroke="#000" stroke-linecap="round" stroke-linejoin="round" stroke-miterlimit="10" stroke-width="1"/>
      <line id="Line_112" data-name="Line 112" x2="10.831" transform="translate(2.367 5.533)" fill="none" stroke="#000" stroke-linecap="round" stroke-linejoin="round" stroke-miterlimit="10" stroke-width="1"/>
      <path id="Path_921" data-name="Path 921" d="M54.047,48.321A1.047,1.047,0,0,1,53,49.368" transform="translate(-39.335 -35.284)" fill="none" stroke="#000" stroke-linecap="round" stroke-linejoin="round" stroke-miterlimit="10" stroke-width="1"/>
    </g>
  </g>
</svg>
