<svg xmlns="http://www.w3.org/2000/svg" width="9.617" height="16.584" viewBox="0 0 9.617 16.584">
  <g id="_1F5FF" data-name="1F5FF" transform="translate(0.507 0.5)">
    <g id="color" transform="translate(0 0)">
      <path id="Path_715" data-name="Path 715" d="M28.362,26.165V11.074a.274.274,0,0,0-.274-.274h-4.01a.274.274,0,0,0-.184.07l-1.93,1.737a.274.274,0,0,0-.036.369l.406.542a.274.274,0,0,1,.026.287L19.78,18.963a.274.274,0,0,0,.245.4h1.307a.274.274,0,0,1,.245.4l-.87,1.74a.274.274,0,0,0-.029.123v1.856a.274.274,0,0,0,.274.274H23.7a.274.274,0,0,1,.274.274V26.11a.274.274,0,0,0,.274.274h3.841C28.239,26.384,28.362,26.316,28.362,26.165Z" transform="translate(-19.751 -10.8)" fill="#d0cfce"/>
      <path id="Path_716" data-name="Path 716" d="M41.138,31.638v4.17h.509" transform="translate(-34.379 -25.053)" fill="#d0cfce"/>
    </g>
    <g id="line" transform="translate(0 0)">
      <path id="Path_717" data-name="Path 717" d="M45.264,60.483" transform="translate(-37.202 -44.783)" stroke="#000" stroke-miterlimit="10" stroke-width="1"/>
      <path id="Path_718" data-name="Path 718" d="M28.362,26.165V11.074a.274.274,0,0,0-.274-.274h-4.01a.274.274,0,0,0-.184.07l-1.93,1.737a.274.274,0,0,0-.036.369l.406.542a.274.274,0,0,1,.026.287L19.78,18.963a.274.274,0,0,0,.245.4h1.307a.274.274,0,0,1,.245.4l-.87,1.74a.274.274,0,0,0-.029.123v1.856a.274.274,0,0,0,.274.274H23.7a.274.274,0,0,1,.274.274V26.11a.274.274,0,0,0,.274.274h3.841C28.239,26.384,28.362,26.316,28.362,26.165Z" transform="translate(-19.751 -10.8)" fill="none" stroke="#000" stroke-miterlimit="10" stroke-width="1"/>
      <line id="Line_86" data-name="Line 86" x2="1.756" transform="translate(0.928 10.755)" stroke="#000" stroke-linecap="round" stroke-linejoin="round" stroke-miterlimit="10" stroke-width="1"/>
      <path id="Path_719" data-name="Path 719" d="M41.138,31.638v4.17h.509" transform="translate(-34.379 -25.053)" fill="none" stroke="#000" stroke-linecap="round" stroke-linejoin="round" stroke-miterlimit="10" stroke-width="1"/>
      <path id="Path_720" data-name="Path 720" d="M29.347,22.045l2.414-2.058H30.432" transform="translate(-26.314 -17.083)" fill="none" stroke="#000" stroke-linecap="round" stroke-linejoin="round" stroke-miterlimit="10" stroke-width="1"/>
    </g>
  </g>
</svg>
