<svg xmlns="http://www.w3.org/2000/svg" width="16.721" height="16.872" viewBox="0 0 16.721 16.872">
  <g id="_1F9D1-200D-1F4BB" data-name="1F9D1-200D-1F4BB" transform="translate(0 0.5)">
    <g id="color" transform="translate(0.432 10.702)">
      <path id="Path_220" data-name="Path 220" d="M17.2,49.115s-.632-4.269,3.162-4.269a5.2,5.2,0,0,0,2.846,1.136h-.04c.972,0,1.489-.684,2.5-1.357,4.924,0,3.637,4.49,3.637,4.49" transform="translate(-17.158 -44.244)" fill="#92d3f5"/>
      <path id="Path_221" data-name="Path 221" d="M31.108,50.121l-1.024-1.243-1.024-1.243h4.1l-1.024,1.243Z" transform="translate(-25.296 -46.302)" fill="#fff"/>
      <path id="Path_222" data-name="Path 222" d="M24.2,44.92s-1.866,1.273-.683,2.361h1.446L24.7,48.464l2.5.617.092-.792-2.644-3.277" transform="translate(-21.24 -44.446)" fill="#61b2e4"/>
      <path id="Path_223" data-name="Path 223" d="M45.247,43.423l-2.2,5.17h-7.9l2.2-5.17Z" transform="translate(-29.458 -43.423)" fill="#d0cfce"/>
      <path id="Path_224" data-name="Path 224" d="M56.4,43.423l-2.2,5.17H51.363l2.2-5.17H56.4Z" transform="translate(-40.547 -43.423)" fill="#9b9b9a"/>
    </g>
    <g id="hair" transform="translate(1.964 0)">
      <path id="Path_225" data-name="Path 225" d="M23.265,18.119C22,18.119,22,16.222,22,14.008a4.136,4.136,0,0,1,4.427-4.427,4.136,4.136,0,0,1,4.427,4.427c0,2.214,0,4.111-1.265,4.111" transform="translate(-22 -9.581)" fill="#a57939"/>
    </g>
    <g id="skin" transform="translate(2.892 1.897)">
      <path id="Path_226" data-name="Path 226" d="M24.937,19.692c0,2.846,1.561,4.427,3.478,4.427,1.877,0,3.5-1.581,3.5-4.427a3.838,3.838,0,0,0-.316-1.581c-.949-.949-2.214-2.53-2.214-2.53-1.265.949-2.214,1.9-4.111,2.214C25.273,17.794,24.937,18.11,24.937,19.692Z" transform="translate(-24.937 -15.581)" fill="#fcea2b"/>
    </g>
    <g id="line" transform="translate(0 0)">
      <path id="Path_227" data-name="Path 227" d="M16.147,48.663a.316.316,0,0,1-.312-.268,4.69,4.69,0,0,1,.816-3.407A3.324,3.324,0,0,1,19.31,43.92a.316.316,0,0,1,.175.053,4.928,4.928,0,0,0,2.658,1.083h.013a.316.316,0,0,1,0,.632H22.1a5.372,5.372,0,0,1-2.886-1.135,2.681,2.681,0,0,0-2.083.844,4.119,4.119,0,0,0-.673,2.9.315.315,0,0,1-.313.363Z" transform="translate(-15.791 -33.061)"/>
      <path id="Path_228" data-name="Path 228" d="M28.344,47.712a.315.315,0,0,1-.247-.119l-2.3-2.869a.316.316,0,1,1,.493-.4l2.3,2.869a.316.316,0,0,1-.246.514Z" transform="translate(-22.587 -33.26)"/>
      <path id="Path_229" data-name="Path 229" d="M25.568,48.168a.315.315,0,0,1-.071-.008L23.948,47.8a.316.316,0,0,1-.233-.4l.145-.494H22.837a.317.317,0,0,1-.214-.083,1.36,1.36,0,0,1-.491-1.124,2.784,2.784,0,0,1,1.211-1.731.316.316,0,0,1,.357.522c-.248.17-.9.728-.937,1.256a.694.694,0,0,0,.206.528h1.315a.316.316,0,0,1,.3.405l-.169.577,1.222.281a.316.316,0,0,1-.071.624Z" transform="translate(-20.124 -33.061)"/>
      <path id="Path_230" data-name="Path 230" d="M35.147,48.593h7.9l2.2-5.17h-7.9Z" transform="translate(-29.026 -32.721)" fill="none" stroke="#000" stroke-linecap="round" stroke-linejoin="round" stroke-miterlimit="10" stroke-width="1"/>
      <line id="Line_18" data-name="Line 18" x2="3.469" transform="translate(2.652 15.872)" fill="none" stroke="#000" stroke-linecap="round" stroke-linejoin="round" stroke-miterlimit="10" stroke-width="1"/>
      <path id="Path_231" data-name="Path 231" d="M27.441,25.171" transform="translate(-23.757 -20.241)" fill="none" stroke="#000" stroke-linecap="round" stroke-linejoin="round" stroke-miterlimit="10" stroke-width="1"/>
      <path id="Path_232" data-name="Path 232" d="M39.218,25.679a.632.632,0,1,1-.632-.632.632.632,0,0,1,.632.632" transform="translate(-30.945 -20.156)"/>
      <path id="Path_233" data-name="Path 233" d="M31.218,25.679a.632.632,0,1,1-.632-.632.632.632,0,0,1,.632.632" transform="translate(-25.474 -20.156)"/>
      <path id="Path_234" data-name="Path 234" d="M33.217,35.167a2.42,2.42,0,0,1-1.09-.271.316.316,0,1,1,.283-.566,1.7,1.7,0,0,0,1.614,0,.316.316,0,1,1,.283.566A2.42,2.42,0,0,1,33.217,35.167Z" transform="translate(-26.842 -26.481)"/>
      <path id="Path_235" data-name="Path 235" d="M23.265,18.119C22,18.119,22,16.222,22,14.008a4.136,4.136,0,0,1,4.427-4.427,4.136,4.136,0,0,1,4.427,4.427c0,2.214,0,4.111-1.265,4.111" transform="translate(-20.036 -9.581)" fill="none" stroke="#000" stroke-linecap="round" stroke-linejoin="round" stroke-width="1"/>
      <path id="Path_236" data-name="Path 236" d="M24.937,19.692c0,2.846,1.561,4.427,3.478,4.427,1.877,0,3.5-1.581,3.5-4.427a3.838,3.838,0,0,0-.316-1.581c-.949-.949-2.214-2.53-2.214-2.53-1.265.949-2.214,1.9-4.111,2.214C25.273,17.794,24.937,18.11,24.937,19.692Z" transform="translate(-22.044 -13.683)" fill="none" stroke="#000" stroke-linejoin="round" stroke-width="1"/>
      <path id="Path_237" data-name="Path 237" d="M30.2,27.845h-.635a1.209,1.209,0,0,1-1.1-.712,1.208,1.208,0,0,1-1.1.712h-.635a1.208,1.208,0,0,1-1.207-1.207v-.391H25.3a.316.316,0,0,1,0-.632h.535a.316.316,0,0,1,.316.316v.708a.575.575,0,0,0,.574.574h.635a.575.575,0,0,0,.574-.574v-.349a.316.316,0,0,1,.316-.316h.421a.316.316,0,0,1,.316.316v.349a.575.575,0,0,0,.574.574H30.2a.575.575,0,0,0,.574-.574V25.93a.316.316,0,0,1,.316-.316h.366a.316.316,0,1,1,0,.632H31.4v.391A1.208,1.208,0,0,1,30.2,27.845Z" transform="translate(-22.077 -20.544)"/>
      <path id="Path_238" data-name="Path 238" d="M34.018,18.972" transform="translate(-28.254 -16.002)" fill="none" stroke="#000" stroke-linecap="round" stroke-linejoin="round" stroke-miterlimit="10" stroke-width="1"/>
    </g>
  </g>
</svg>
