<svg xmlns="http://www.w3.org/2000/svg" width="18.636" height="19.189" viewBox="0 0 18.636 19.189">
  <g id="_26D1" data-name="26D1" transform="translate(0.487 0.48)">
    <g id="color" transform="translate(0 0.135)">
      <path id="Path_307" data-name="Path 307" d="M22.875,7.859c-2.689.05-5.827,1.295-5.877,6.226l-.149,1.037c.3-.05,1.018.666,1.317.716.946.05,1.263-.448,2.06,0s1.852.189,2.7.189a5.107,5.107,0,0,0,2.6-.189c.8-.448,1.753.05,2.649,0h.883L28.7,14.085C28.7,9.154,25.565,7.909,22.875,7.859Z" transform="translate(-14.058 -7.859)" fill="#ea5a47"/>
      <path id="Path_308" data-name="Path 308" d="M24.808,30.207s2.355,1.472-1.177,2.06c.2-.054,2.633-.023-5,.589a10.36,10.36,0,0,0-2.06,0c-.408.056-.5-.01-2.355,0a13.915,13.915,0,0,1-4.154-.425c-.883-.294-1.439-.458-1.439-.458-.213.122-1.472-.967.589-1.766-.024-.1-.764.248,7.653.589C18.852,30.876,24.808,30.207,24.808,30.207Z" transform="translate(-8.045 -23.111)" fill="#d22f27"/>
    </g>
    <g id="line" transform="translate(0.015 0)">
      <path id="Path_309" data-name="Path 309" d="M33.142,8.958v4.611a4.843,4.843,0,0,1-4.709,0V8.888" transform="translate(-21.985 -8.427)" fill="none" stroke="#000" stroke-miterlimit="10" stroke-width="1"/>
      <path id="Path_310" data-name="Path 310" d="M16.825,14.853c0-2.656,1.49-5.821,3.621-6.82a5.665,5.665,0,0,1,2.413-.538,6.266,6.266,0,0,1,6.034,6.475c0,.139.008.746,0,.883" transform="translate(-14.056 -7.475)" fill="none" stroke="#000" stroke-linecap="round" stroke-miterlimit="10" stroke-width="1"/>
      <path id="Path_311" data-name="Path 311" d="M18.218,41.389s.294,6.77,5.592,6.77,5.592-6.77,5.592-6.77" transform="translate(-15.008 -30.626)" fill="none" stroke="#000" stroke-linecap="round" stroke-miterlimit="10" stroke-width="1"/>
      <g id="Group_43" data-name="Group 43" transform="translate(0 7.251)">
        <path id="Path_312" data-name="Path 312" d="M43.434,30.31c.008,0,1.223-.067,1.283.862.021.33-.159.834-.989,1.031a43.217,43.217,0,0,1-7.829.734" transform="translate(-27.085 -30.309)" fill="none" stroke="#000" stroke-linecap="round" stroke-miterlimit="10" stroke-width="1"/>
        <path id="Path_313" data-name="Path 313" d="M9.375,30.31c-.008,0-1.223-.067-1.283.862-.021.33.159.834.989,1.031a43.216,43.216,0,0,0,7.829.734" transform="translate(-8.09 -30.309)" fill="none" stroke="#000" stroke-linecap="round" stroke-miterlimit="10" stroke-width="1"/>
      </g>
      <path id="Path_314" data-name="Path 314" d="M27.5,32.1a27.391,27.391,0,0,0,5.3,0" transform="translate(-21.351 -24.284)" fill="none" stroke="#000" stroke-linecap="round" stroke-linejoin="round" stroke-width="1"/>
      <path id="Path_315" data-name="Path 315" d="M28.432,60.922a4.65,4.65,0,0,0,4.709,0" transform="translate(-21.985 -43.968)" fill="none" stroke="#000" stroke-linecap="round" stroke-miterlimit="10" stroke-width="2"/>
      <path id="Path_316" data-name="Path 316" d="M28.6,7.894s2.648-1.072,4.48.053l.066,4.657a4.677,4.677,0,0,1-4.709,0Z" transform="translate(-21.985 -7.433)"/>
    </g>
    <g id="color-foreground" transform="translate(7.725 1.569)">
      <line id="Line_28" data-name="Line 28" y2="2.502" transform="translate(1.104)" fill="none" stroke="#fff" stroke-linecap="round" stroke-miterlimit="10" stroke-width="2"/>
      <line id="Line_29" data-name="Line 29" x2="2.207" transform="translate(0 1.251)" fill="none" stroke="#fff" stroke-linecap="round" stroke-miterlimit="10" stroke-width="2"/>
    </g>
  </g>
</svg>
