<svg xmlns="http://www.w3.org/2000/svg" width="23.286" height="15.19" viewBox="0 0 23.286 15.19">
  <g id="_1F3E1" data-name="1F3E1" transform="translate(0.5 0.5)">
    <g id="color" transform="translate(0 0)">
      <rect id="Rectangle_36" data-name="Rectangle 36" width="10.186" height="6.863" transform="translate(11.774 7.39)" fill="#fff"/>
      <path id="Path_208" data-name="Path 208" d="M42.7,23.2l-4.6,4.85h9.624Z" transform="translate(-25.938 -20.68)" fill="#ea5a47" stroke="#ea5a47" stroke-linecap="round" stroke-linejoin="round" stroke-miterlimit="10" stroke-width="2"/>
      <path id="Path_209" data-name="Path 209" d="M43.325,23.559l-2.425,2.3V22.607c0-.353.286-.537.639-.537h1.147c.353,0,.639.184.639.537Z" transform="translate(-27.677 -19.978)" fill="#ea5a47"/>
      <rect id="Rectangle_37" data-name="Rectangle 37" width="2.273" height="4.547" transform="translate(14.019 9.644)" fill="#a57939"/>
      <rect id="Rectangle_38" data-name="Rectangle 38" width="2.273" height="1.894" transform="translate(18.186 9.644)" fill="#92d3f5"/>
      <path id="Path_210" data-name="Path 210" d="M19.263,21.015c0-1.255-1.305-2.274-2.915-2.274a3.732,3.732,0,0,0-.4.025,4.339,4.339,0,0,0-3.884-2.219A4.078,4.078,0,0,0,7.776,20.38,3.471,3.471,0,0,0,7.8,20.8,2.351,2.351,0,0,0,6,22.9c0,1.255,1.305,2.274,2.915,2.274a3.461,3.461,0,0,0,1.748-.457,4.911,4.911,0,0,0,3.037.924c2.088,0,3.78-1.018,3.78-2.274a1.394,1.394,0,0,0-.023-.247A2.354,2.354,0,0,0,19.263,21.015Z" transform="translate(-6 -16.548)" fill="#b1cc33"/>
    </g>
    <g id="line" transform="translate(0 0)">
      <path id="Path_211" data-name="Path 211" d="M41.031,24.516,42.636,23l5.215,4.584v7.162H38V30.028" transform="translate(-25.876 -20.555)" fill="none" stroke="#000" stroke-linecap="round" stroke-linejoin="round" stroke-miterlimit="10" stroke-width="1"/>
      <rect id="Rectangle_39" data-name="Rectangle 39" width="2.273" height="4.547" transform="translate(14.019 9.644)" fill="none" stroke="#000" stroke-linecap="round" stroke-linejoin="round" stroke-miterlimit="10" stroke-width="1"/>
      <rect id="Rectangle_40" data-name="Rectangle 40" width="2.273" height="1.894" transform="translate(18.186 9.644)" fill="none" stroke="#000" stroke-linecap="round" stroke-linejoin="round" stroke-miterlimit="10" stroke-width="1"/>
      <path id="Path_212" data-name="Path 212" d="M43.5,23h1.137v1.137" transform="translate(-29.292 -20.555)" fill="none" stroke="#000" stroke-linecap="round" stroke-linejoin="round" stroke-miterlimit="10" stroke-width="1"/>
      <path id="Path_213" data-name="Path 213" d="M31.245,39.34" transform="translate(-21.68 -30.704)" fill="none" stroke="#000" stroke-miterlimit="10" stroke-width="1"/>
      <path id="Path_214" data-name="Path 214" d="M19.394,46.547V43.829L17.5,42" transform="translate(-13.143 -32.356)" fill="none" stroke="#000" stroke-linecap="round" stroke-linejoin="round" stroke-width="1"/>
      <line id="Line_16" data-name="Line 16" y1="1.122" x2="1.078" transform="translate(6.456 10.313)" fill="none" stroke="#000" stroke-linecap="round" stroke-linejoin="round" stroke-width="1"/>
      <path id="Path_215" data-name="Path 215" d="M19.263,21.015c0-1.255-1.305-2.274-2.915-2.274a3.732,3.732,0,0,0-.4.025,4.339,4.339,0,0,0-3.884-2.219A4.078,4.078,0,0,0,7.776,20.38,3.471,3.471,0,0,0,7.8,20.8,2.351,2.351,0,0,0,6,22.9c0,1.255,1.305,2.274,2.915,2.274a3.461,3.461,0,0,0,1.748-.457,4.911,4.911,0,0,0,3.037.924c2.088,0,3.78-1.018,3.78-2.274a1.394,1.394,0,0,0-.023-.247A2.354,2.354,0,0,0,19.263,21.015Z" transform="translate(-6 -16.548)" fill="none" stroke="#000" stroke-linecap="round" stroke-miterlimit="10" stroke-width="1"/>
      <line id="Line_17" data-name="Line 17" x1="7.957" transform="translate(13.829 7.37)" fill="none" stroke="#000" stroke-linecap="round" stroke-linejoin="round" stroke-miterlimit="10" stroke-width="1"/>
    </g>
  </g>
</svg>
