<svg xmlns="http://www.w3.org/2000/svg" width="19.308" height="16.33" viewBox="0 0 19.308 16.33">
  <g id="_1F380" data-name="1F380" transform="translate(0.5 0.5)">
    <g id="color" transform="translate(0 0)">
      <path id="Path_488" data-name="Path 488" d="M44.943,16.473c-1.581,0-4.386,1.54-5.784,3.04a1.628,1.628,0,0,1,.432,1.113,13.75,13.75,0,0,1-.05,2.425c3.7,1.147,4.62,3.991,6.441,1.575C48.06,21.867,46.9,16.473,44.943,16.473Z" transform="translate(-28.782 -16.153)" fill="#ea5a47"/>
      <path id="Path_489" data-name="Path 489" d="M39.591,20.771c1.485-1.352,3.921-2.616,5.353-2.616,1.07,0,1.9,1.617,2.1,3.534.262-2.544-.721-5.216-2.1-5.216-1.581,0-4.386,1.54-5.784,3.04a1.628,1.628,0,0,1,.432,1.113C39.591,20.675,39.591,20.724,39.591,20.771Z" transform="translate(-28.782 -16.153)" fill="#d22f27"/>
      <path id="Path_490" data-name="Path 490" d="M14.112,19.622v.147c0,.491,0,.861,0,1.142v.683a1.658,1.658,0,0,0,.035.4c0,.01,0,.019.006.029a.094.094,0,0,1,.01.032h0c-2.29.711-3.515,2.073-4.548,2.43a1.373,1.373,0,0,1-1.595-.5,4.639,4.639,0,0,1-.3-.357,5.508,5.508,0,0,1-.954-2.245v-.006c-.045-.226-.08-.456-.1-.686-.016-.14-.029-.281-.032-.421s-.013-.277-.013-.415c0-1.773.565-3.46,1.4-4.1a1.248,1.248,0,0,1,.156-.108,1.156,1.156,0,0,1,.587-.169,3.277,3.277,0,0,1,.631.067q.11.019.22.048c.067.016.137.035.207.054a11.676,11.676,0,0,1,4.6,2.746Z" transform="translate(-6.62 -15.47)" fill="#ea5a47"/>
      <path id="Path_491" data-name="Path 491" d="M14.112,19.622v.147a11.575,11.575,0,0,0-4.5-2.5,3.761,3.761,0,0,0-.852-.115,1.2,1.2,0,0,0-.743.277,1.426,1.426,0,0,0-.112.092,5.175,5.175,0,0,0-1.241,3.164c-.016-.14-.029-.281-.032-.421s-.013-.277-.013-.415c0-1.773.565-3.46,1.4-4.1a1.248,1.248,0,0,1,.156-.108,1.156,1.156,0,0,1,.587-.169,3.277,3.277,0,0,1,.631.067q.11.019.22.048c.067.016.137.035.207.054a11.676,11.676,0,0,1,4.6,2.746Z" transform="translate(-6.62 -15.47)" fill="#d22f27"/>
      <path id="Path_492" data-name="Path 492" d="M20.887,36.82a7.409,7.409,0,0,0-1.084.5,30.4,30.4,0,0,0-3.289,5.811c-.106.239.057.524.272.477l1.538-.336a.5.5,0,0,1,.556.331l.693,1.561c.121.273.449.219.508-.085a51.958,51.958,0,0,1,1.824-7.1A1.43,1.43,0,0,1,20.887,36.82Z" transform="translate(-13.336 -30.011)" fill="#ea5a47"/>
      <path id="Path_493" data-name="Path 493" d="M39.63,37.334a7.025,7.025,0,0,0-1.1-.514,1.43,1.43,0,0,1-1.017,1.153,51.95,51.95,0,0,1,1.824,7.1c.059.3.387.358.508.085l.693-1.561a.5.5,0,0,1,.556-.331l1.538.336c.216.047.379-.239.272-.477A30.473,30.473,0,0,0,39.63,37.334Z" transform="translate(-27.662 -30.01)" fill="#ea5a47"/>
      <path id="Path_494" data-name="Path 494" d="M31.937,22.718H31.4a1.536,1.536,0,0,0-1.292,1.693v2.119A1.536,1.536,0,0,0,31.4,28.224h.535a1.536,1.536,0,0,0,1.292-1.693V24.411A1.536,1.536,0,0,0,31.937,22.718Z" transform="translate(-22.618 -20.406)" fill="#ea5a47"/>
      <path id="Path_495" data-name="Path 495" d="M35.226,23.326a2.024,2.024,0,0,1,.3,1.085v2.119a1.536,1.536,0,0,1-1.292,1.693H33.7a1.028,1.028,0,0,1-.5-.131A1.764,1.764,0,0,0,34,26.531V24.411a1.764,1.764,0,0,0-.795-1.563,1.028,1.028,0,0,1,.5-.131h.535a1.2,1.2,0,0,1,.991.608Z" transform="translate(-24.724 -20.406)" fill="#d22f27"/>
    </g>
    <g id="line" transform="translate(0 0)">
      <path id="Path_496" data-name="Path 496" d="M52.261,15.774a1.131,1.131,0,0,0-.562-.155,6.526,6.526,0,0,0-2.62.783" transform="translate(-35.538 -15.571)" fill="none" stroke="#000" stroke-miterlimit="10" stroke-width="1"/>
      <path id="Path_497" data-name="Path 497" d="M40.357,22.528c3.7,1.147,4.62,3.991,6.441,1.575,1.869-2.481,1.116-7.1-.477-8" transform="translate(-29.597 -15.902)" fill="none" stroke="#000" stroke-miterlimit="10" stroke-width="1"/>
      <path id="Path_498" data-name="Path 498" d="M42.323,18.073A11.54,11.54,0,0,0,39.16,20.33" transform="translate(-28.782 -17.243)" fill="none" stroke="#000" stroke-miterlimit="10" stroke-width="1"/>
      <path id="Path_499" data-name="Path 499" d="M14.112,19.622v.147c0,.491,0,.861,0,1.142,0,.325,0,.533,0,.683a1.658,1.658,0,0,0,.035.4c0,.006,0,.01,0,.016a.183.183,0,0,1,.013.045h0c-2.29.711-3.515,2.073-4.548,2.43a1.373,1.373,0,0,1-1.595-.5,4.639,4.639,0,0,1-.3-.357,5.508,5.508,0,0,1-.954-2.245c-.045-.23-.08-.459-.1-.692-.016-.14-.029-.281-.032-.421s-.013-.277-.013-.415c0-1.773.565-3.46,1.4-4.1a1.248,1.248,0,0,1,.156-.108,1.156,1.156,0,0,1,.587-.169,3.277,3.277,0,0,1,.631.067q.11.019.22.048c.067.016.137.035.207.054a11.676,11.676,0,0,1,4.6,2.746" transform="translate(-6.62 -15.47)" fill="none" stroke="#000" stroke-miterlimit="10" stroke-width="1"/>
      <path id="Path_500" data-name="Path 500" d="M20.887,36.82a7.409,7.409,0,0,0-1.084.5,30.4,30.4,0,0,0-3.289,5.811c-.106.239.057.524.272.477l1.538-.336a.5.5,0,0,1,.556.331l.693,1.561c.121.273.449.219.508-.085a51.958,51.958,0,0,1,1.824-7.1A1.43,1.43,0,0,1,20.887,36.82Z" transform="translate(-13.336 -30.011)" fill="none" stroke="#000" stroke-linecap="round" stroke-linejoin="round" stroke-miterlimit="10" stroke-width="1"/>
      <path id="Path_501" data-name="Path 501" d="M39.63,37.334a7.025,7.025,0,0,0-1.1-.514,1.43,1.43,0,0,1-1.017,1.153,51.95,51.95,0,0,1,1.824,7.1c.059.3.387.358.508.085l.693-1.561a.5.5,0,0,1,.556-.331l1.538.336c.216.047.379-.239.272-.477A30.473,30.473,0,0,0,39.63,37.334Z" transform="translate(-27.662 -30.01)" fill="none" stroke="#000" stroke-linecap="round" stroke-linejoin="round" stroke-miterlimit="10" stroke-width="1"/>
      <path id="Path_502" data-name="Path 502" d="M31.937,22.718H31.4a1.536,1.536,0,0,0-1.292,1.693v2.119A1.536,1.536,0,0,0,31.4,28.224h.535a1.536,1.536,0,0,0,1.292-1.693V24.411A1.536,1.536,0,0,0,31.937,22.718Z" transform="translate(-22.618 -20.406)" fill="none" stroke="#000" stroke-miterlimit="10" stroke-width="1"/>
    </g>
  </g>
</svg>
