<svg xmlns="http://www.w3.org/2000/svg" width="18.566" height="16.837" viewBox="0 0 18.566 16.837">
  <g id="_1F916" data-name="1F916" transform="translate(0.5 0.5)">
    <g id="color" transform="translate(0 0.036)">
      <path id="Path_473" data-name="Path 473" d="M34,12.862V11.98a.878.878,0,0,1,.878-.878h0a.878.878,0,0,1,.878.878v.878" transform="translate(-25.919 -11.101)" fill="#d22f27"/>
      <path id="Path_474" data-name="Path 474" d="M11.878,32.669h0A.878.878,0,0,1,11,31.79V28.98a.878.878,0,0,1,.878-.878h0a.878.878,0,0,1,.878.878V31.79A.878.878,0,0,1,11.878,32.669Z" transform="translate(-11 -22.129)" fill="#d0cfce"/>
      <path id="Path_475" data-name="Path 475" d="M56.878,32.669h0a.878.878,0,0,0,.878-.878V28.98a.878.878,0,0,0-.878-.878h0A.878.878,0,0,0,56,28.98V31.79A.878.878,0,0,0,56.878,32.669Z" transform="translate(-40.19 -22.129)" fill="#d0cfce"/>
      <path id="Path_476" data-name="Path 476" d="M27.049,30.165H19a3.013,3.013,0,0,1-3-3V19.116a3.013,3.013,0,0,1,3-3h8.046a3.013,3.013,0,0,1,3,3v8.046A3.013,3.013,0,0,1,27.049,30.165Z" transform="translate(-14.243 -14.352)" fill="#d0cfce"/>
      <path id="Path_477" data-name="Path 477" d="M35.5,30.165h4.668a2.808,2.808,0,0,0,2.535-3V19.115a2.808,2.808,0,0,0-2.535-3h-.827" transform="translate(-26.891 -14.351)" fill="#9b9b9a"/>
      <circle id="Ellipse_25" data-name="Ellipse 25" cx="0.996" cy="0.996" r="0.996" transform="translate(10.891 5.294)" fill="#fff"/>
      <circle id="Ellipse_26" data-name="Ellipse 26" cx="0.996" cy="0.996" r="0.996" transform="translate(4.743 5.293)" fill="#fff"/>
      <path id="Path_478" data-name="Path 478" d="M30.878,42.311H24.905A1.409,1.409,0,0,1,23.5,40.906h0A1.409,1.409,0,0,1,24.905,39.5h5.973a1.409,1.409,0,0,1,1.405,1.405h0A1.409,1.409,0,0,1,30.878,42.311Z" transform="translate(-19.108 -29.523)" fill="#fff"/>
    </g>
    <g id="line" transform="translate(0)">
      <path id="Path_479" data-name="Path 479" d="M36.5,21.454" transform="translate(-27.541 -17.781)" fill="none" stroke="#000" stroke-linecap="round" stroke-linejoin="round" stroke-miterlimit="2" stroke-width="1"/>
      <path id="Path_480" data-name="Path 480" d="M34,12.76v-.882A.878.878,0,0,1,34.878,11h0a.878.878,0,0,1,.878.878v.878" transform="translate(-25.919 -11)" fill="none" stroke="#000" stroke-linecap="round" stroke-linejoin="round" stroke-miterlimit="2" stroke-width="1"/>
      <path id="Path_481" data-name="Path 481" d="M27.049,30.053H19a3.013,3.013,0,0,1-3-3V19a3.013,3.013,0,0,1,3-3h8.046a3.013,3.013,0,0,1,3,3v8.046A3.013,3.013,0,0,1,27.049,30.053Z" transform="translate(-14.243 -14.243)" fill="none" stroke="#000" stroke-linecap="round" stroke-linejoin="round" stroke-miterlimit="2" stroke-width="1"/>
      <circle id="Ellipse_27" data-name="Ellipse 27" cx="0.996" cy="0.996" r="0.996" transform="translate(10.891 5.329)" fill="none" stroke="#000" stroke-linecap="round" stroke-linejoin="round" stroke-miterlimit="2" stroke-width="1"/>
      <circle id="Ellipse_28" data-name="Ellipse 28" cx="0.996" cy="0.996" r="0.996" transform="translate(4.743 5.329)" fill="none" stroke="#000" stroke-linecap="round" stroke-linejoin="round" stroke-miterlimit="2" stroke-width="1"/>
      <path id="Path_482" data-name="Path 482" d="M30.878,42.311H24.905A1.409,1.409,0,0,1,23.5,40.905h0A1.409,1.409,0,0,1,24.905,39.5h5.973a1.409,1.409,0,0,1,1.405,1.405h0A1.409,1.409,0,0,1,30.878,42.311Z" transform="translate(-19.108 -29.487)" fill="none" stroke="#000" stroke-miterlimit="2" stroke-width="1"/>
      <path id="Path_483" data-name="Path 483" d="M11.878,32.567h0A.878.878,0,0,1,11,31.689V28.878A.878.878,0,0,1,11.878,28h0a.878.878,0,0,1,.878.878v2.811A.878.878,0,0,1,11.878,32.567Z" transform="translate(-11 -22.027)" fill="none" stroke="#000" stroke-linecap="round" stroke-linejoin="round" stroke-miterlimit="2" stroke-width="1"/>
      <path id="Path_484" data-name="Path 484" d="M56.878,32.567h0a.878.878,0,0,0,.878-.878V28.878A.878.878,0,0,0,56.878,28h0a.878.878,0,0,0-.878.878v2.811A.878.878,0,0,0,56.878,32.567Z" transform="translate(-40.19 -22.027)" fill="none" stroke="#000" stroke-linecap="round" stroke-linejoin="round" stroke-miterlimit="2" stroke-width="1"/>
      <path id="Path_485" data-name="Path 485" d="M36.5,37.5" transform="translate(-27.541 -28.19)" fill="none" stroke="#000" stroke-miterlimit="10" stroke-width="1"/>
      <path id="Path_486" data-name="Path 486" d="M36.5,57.5" transform="translate(-27.541 -41.163)" fill="none" stroke="#000" stroke-miterlimit="10" stroke-width="1"/>
      <line id="Line_53" data-name="Line 53" y2="2.391" transform="translate(5.595 10.36)" fill="none" stroke="#000" stroke-linecap="round" stroke-linejoin="round" stroke-miterlimit="2" stroke-width="1"/>
      <line id="Line_54" data-name="Line 54" y2="2.391" transform="translate(7.986 10.36)" fill="none" stroke="#000" stroke-linecap="round" stroke-linejoin="round" stroke-miterlimit="2" stroke-width="1"/>
      <line id="Line_55" data-name="Line 55" y2="2.391" transform="translate(9.58 10.36)" fill="none" stroke="#000" stroke-linecap="round" stroke-linejoin="round" stroke-miterlimit="2" stroke-width="1"/>
      <line id="Line_56" data-name="Line 56" y2="2.391" transform="translate(11.174 10.36)" fill="none" stroke="#000" stroke-linecap="round" stroke-linejoin="round" stroke-miterlimit="2" stroke-width="1"/>
    </g>
  </g>
</svg>
