<svg xmlns="http://www.w3.org/2000/svg" width="19.779" height="18.25" viewBox="0 0 19.779 18.25">
  <g id="_1F929" data-name="1F929" transform="translate(0.472 0.125)">
    <g id="color" transform="translate(0 0)">
      <circle id="Ellipse_1" data-name="Ellipse 1" cx="9" cy="9" r="9" transform="translate(0.418)" fill="#fcea2b"/>
      <path id="Path_18" data-name="Path 18" d="M16.194,17.551l2.995-.45-1.464,2.651,1.354,2.709L16.1,21.887l-2.158,2.125-.374-3.005-2.688-1.4,2.743-1.284.5-2.987Z" transform="translate(-10.886 -14.087)" fill="#f1b31c"/>
      <path id="Path_19" data-name="Path 19" d="M41.891,17.551,38.9,17.1l1.464,2.651L39.007,22.46l2.974-.573,2.158,2.125.374-3.005,2.688-1.4-2.743-1.284-.5-2.987Z" transform="translate(-28.392 -14.087)" fill="#f1b31c"/>
      <path id="Path_20" data-name="Path 20" d="M32.55,46.275c-.671,1.6-2.381,2.711-5.138,2.711-2.779,0-4.511-1.136-5.175-2.76A24.754,24.754,0,0,0,32.55,46.275Z" transform="translate(-17.98 -33.391)" fill="#ea5a47"/>
      <path id="Path_21" data-name="Path 21" d="M32.357,41.866a4.319,4.319,0,0,1-.326,1.684A24.753,24.753,0,0,1,21.718,43.5a4.316,4.316,0,0,1-.311-1.635h.041a25.763,25.763,0,0,0,10.834.026Z" transform="translate(-17.462 -30.666)" fill="#fff"/>
    </g>
    <g id="line" transform="translate(0.028 0.375)">
      <path id="Path_22" data-name="Path 22" d="M50.053,44.037" transform="translate(-35.394 -32.398)" fill="none" stroke="#000" stroke-linecap="round" stroke-linejoin="round" stroke-miterlimit="10" stroke-width="1"/>
      <path id="Path_23" data-name="Path 23" d="M22,44.037" transform="translate(-17.859 -32.398)" fill="none" stroke="#000" stroke-linecap="round" stroke-linejoin="round" stroke-miterlimit="10" stroke-width="1"/>
      <path id="Path_24" data-name="Path 24" d="M32.357,41.866a4.319,4.319,0,0,1-.326,1.684A24.753,24.753,0,0,1,21.718,43.5a4.316,4.316,0,0,1-.311-1.635h.041a25.763,25.763,0,0,0,10.834.026Z" transform="translate(-17.49 -31.041)" fill="none" stroke="#000" stroke-linecap="round" stroke-linejoin="round" stroke-miterlimit="10" stroke-width="1"/>
      <path id="Path_25" data-name="Path 25" d="M32.55,46.275c-.671,1.6-2.381,2.711-5.138,2.711-2.779,0-4.511-1.136-5.175-2.76A24.754,24.754,0,0,0,32.55,46.275Z" transform="translate(-18.009 -33.766)" fill="none" stroke="#000" stroke-linejoin="round" stroke-miterlimit="10" stroke-width="1"/>
      <path id="Path_26" data-name="Path 26" d="M49.921,46.236l-.184.045" transform="translate(-35.196 -33.772)" fill="none" stroke="#000" stroke-linejoin="round" stroke-miterlimit="10" stroke-width="1"/>
      <path id="Path_27" data-name="Path 27" d="M22.062,46.182l-.105-.026" transform="translate(-17.834 -33.722)" fill="none" stroke="#000" stroke-linejoin="round" stroke-miterlimit="10" stroke-width="1"/>
      <path id="Path_28" data-name="Path 28" d="M33.035,13.96a8.64,8.64,0,0,0-8.055.074l-.056.031" transform="translate(-19.688 -13)" fill="none" stroke="#000" stroke-linecap="round" stroke-linejoin="round" stroke-miterlimit="10" stroke-width="1"/>
      <path id="Path_29" data-name="Path 29" d="M13.073,33a8.625,8.625,0,1,0,17.106.012" transform="translate(-12.236 -25.497)" fill="none" stroke="#000" stroke-linecap="round" stroke-linejoin="round" stroke-miterlimit="10" stroke-width="1"/>
      <path id="Path_30" data-name="Path 30" d="M16.27,17.551l2.995-.45L17.8,19.751l1.354,2.709-2.974-.573-2.158,2.125-.374-3.005-2.688-1.4L13.7,18.326l.5-2.987Z" transform="translate(-10.961 -14.462)" fill="none" stroke="#000" stroke-linecap="round" stroke-linejoin="round" stroke-miterlimit="10" stroke-width="1"/>
      <path id="Path_31" data-name="Path 31" d="M41.891,17.551,38.9,17.1l1.464,2.651L39.007,22.46l2.974-.573,2.158,2.125.374-3.005,2.688-1.4-2.743-1.284-.5-2.987Z" transform="translate(-28.42 -14.462)" fill="none" stroke="#000" stroke-linecap="round" stroke-linejoin="round" stroke-miterlimit="10" stroke-width="1"/>
    </g>
  </g>
</svg>
