<svg xmlns="http://www.w3.org/2000/svg" width="17.447" height="17.033" viewBox="0 0 17.447 17.033">
  <g id="_1F3A6" data-name="1F3A6" transform="translate(0.5 0.5)">
    <g id="color" transform="translate(0 0)">
      <path id="Path_853" data-name="Path 853" d="M46.808,38.219l3.613,2.945a.516.516,0,0,0,.842-.4V32.156a.516.516,0,0,0-.842-.4l-3.713,3.026" transform="translate(-34.815 -25.26)" fill="#d0cfce"/>
      <circle id="Ellipse_62" data-name="Ellipse 62" cx="2.449" cy="2.449" r="2.449" transform="translate(0.007)" fill="#d0cfce"/>
      <circle id="Ellipse_63" data-name="Ellipse 63" cx="2.449" cy="2.449" r="2.449" transform="translate(6.996)" fill="#d0cfce"/>
      <path id="Path_854" data-name="Path 854" d="M22.957,41.394H13.036A1.036,1.036,0,0,1,12,40.359V33.036A1.036,1.036,0,0,1,13.036,32h9.921a1.036,1.036,0,0,1,1.036,1.036v7.323A1.036,1.036,0,0,1,22.957,41.394Z" transform="translate(-12 -25.497)" fill="#d0cfce"/>
    </g>
    <g id="line" transform="translate(0 0)">
      <path id="Path_855" data-name="Path 855" d="M46.808,38.219l3.613,2.945a.516.516,0,0,0,.842-.4V32.156a.516.516,0,0,0-.842-.4l-3.713,3.026" transform="translate(-34.815 -25.26)" fill="none" stroke="#000" stroke-linecap="round" stroke-linejoin="round" stroke-miterlimit="10" stroke-width="1"/>
      <circle id="Ellipse_64" data-name="Ellipse 64" cx="2.449" cy="2.449" r="2.449" transform="translate(0.007)" fill="none" stroke="#000" stroke-linejoin="round" stroke-miterlimit="10" stroke-width="1"/>
      <circle id="Ellipse_65" data-name="Ellipse 65" cx="2.449" cy="2.449" r="2.449" transform="translate(6.996)" fill="none" stroke="#000" stroke-linejoin="round" stroke-miterlimit="10" stroke-width="1"/>
      <path id="Path_856" data-name="Path 856" d="M22.957,41.394H13.036A1.036,1.036,0,0,1,12,40.359V33.036A1.036,1.036,0,0,1,13.036,32h9.921a1.036,1.036,0,0,1,1.036,1.036v7.323A1.036,1.036,0,0,1,22.957,41.394Z" transform="translate(-12 -25.497)" fill="none" stroke="#000" stroke-linejoin="round" stroke-miterlimit="10" stroke-width="1"/>
    </g>
  </g>
</svg>
